<svg version="1.1" xmlns="http://www.w3.org/2000/svg" width="168" height="168" viewBox="0 0 112 112"><g transform="scale(0.438,0.438)"><rect fill="#CC0000" x="0" y="0" rx="16" ry="16" width="256" height="256" /><rect fill="#CC0000" x="9" y="9" rx="12" ry="12" width="238" height="238" /></g><g transform="translate(8,8) scale(0.047,0.047)"><g transform="translate(0,0)"><g transform="scale(1,-1) translate(0,-820)"><path stroke="none" fill="#FFFFFF" d="M706 706Q724 713 738 703Q752 693 751 671L749 545L753 521L789 543Q801 550 797 560Q793 570 786 579Q776 591 780 594Q784 597 796 593Q813 584 827 574Q841 564 860 556Q874 548 871 536Q868 524 854 523Q829 518 809 510Q789 502 765 492Q758 490 752 488Q746 486 748 478L752 358Q751 348 755 348Q759 348 769 350Q808 356 842 358Q876 360 917 327Q935 309 935 295Q935 281 908 275L806 259Q785 264 789 268Q793 272 809 278Q834 288 840 303Q846 318 816 324L764 322Q748 320 749 313Q750 306 750 294Q751 188 747 92Q743 -4 719 -115Q717 -123 713 -125Q709 -127 705 -118Q696 -9 698 89Q700 187 704 298Q703 310 702 310Q701 310 690 308Q662 299 638 289Q614 279 587 265L573 209Q555 152 527 94Q499 36 442 -18Q434 -20 432 -18Q430 -16 434 -9Q476 52 495 107Q514 162 530 223Q533 235 531 233Q529 231 521 226Q482 194 460 187Q438 180 398 182Q388 185 384 189Q380 193 390 199Q428 213 466 233Q504 253 545 276L551 318L555 404L513 380Q479 364 461 384Q443 404 456 431Q460 435 468 427Q476 419 483 415Q499 417 520 423Q541 429 557 440Q556 466 555 507Q554 548 531 558Q524 562 526 568Q528 574 536 579Q554 591 572 585Q590 579 593 554L595 472Q594 455 596 455Q598 455 616 461L638 471Q655 480 677 488Q699 496 710 508L708 630Q705 645 701 656Q697 667 679 668L675 676Q676 686 684 695Q692 704 704 704V704L706 706ZM248 672Q250 674 250 678Q250 682 261 681Q286 661 305 660Q324 659 351 655Q379 650 384 627Q389 604 359 605Q344 606 324 594Q304 582 295 564Q288 554 282 558Q276 562 282 571Q308 608 288 626Q268 644 247 676V676L248 672ZM704 470L596 422L592 312Q589 309 589 304Q589 299 597 302L691 334Q695 337 700 339Q705 341 705 345L707 389Q705 407 708 437Q711 467 703 471V471L704 470ZM304 448Q310 453 322 453Q334 453 348 447Q359 444 359 438Q359 432 349 424Q281 364 257 291Q233 218 235 150Q243 127 249 123Q255 119 278 139Q309 172 329 202Q349 232 375 264Q379 270 383 270Q387 270 384 260Q366 223 348 189Q330 155 315 115Q271 48 235 78Q199 108 190 160Q192 205 205 245Q218 285 236 329Q239 337 237 340Q235 343 228 339L154 287Q133 269 114 276Q95 283 78 303Q67 322 81 320Q95 318 107 318Q152 343 202 373Q252 403 300 451V451V451V452L304 448Z" /></g></g><g transform="translate(1024,0)"><g transform="scale(1,-1) translate(0,-820)"><path stroke="none" fill="#FFFFFF" d="M286 720Q280 728 286 730Q292 732 299 729Q356 715 362 680Q368 645 356 599Q354 593 354 592Q354 591 362 595Q377 606 392 608Q407 610 424 604Q445 593 441 579Q437 565 421 562Q399 555 376 547Q353 539 341 527L315 421Q310 408 316 410Q322 412 332 414Q361 429 392 440Q423 451 448 478Q453 484 459 482Q465 480 471 474Q486 463 490 453Q494 443 476 435Q432 409 394 375Q356 341 317 297Q305 286 309 286Q313 286 323 289L403 335Q449 356 470 324Q491 292 451 262L371 212Q356 202 356 200Q356 198 371 193Q383 189 391 177Q399 165 406 153Q412 135 416 137Q420 139 435 147L477 169Q484 174 482 170Q480 166 478 162L424 114Q422 107 424 97Q426 87 427 78Q430 51 428 25Q426 -1 416 -30Q392 -89 346 -87Q300 -85 259 -36Q253 -29 259 -29Q265 -29 268 -33Q284 -49 304 -58Q324 -67 340 -61Q371 -34 377 2Q383 38 382 68Q382 80 379 76Q376 72 370 68Q313 19 275 2Q237 -15 177 12Q168 15 166 21Q164 27 172 28Q222 28 268 54Q314 80 367 108Q378 116 378 124Q378 132 376 141Q374 159 362 173Q350 187 331 179Q317 170 313 178Q309 186 313 196Q334 215 355 235Q376 255 393 278Q399 286 394 288Q389 290 385 286Q358 277 334 271Q310 265 284 268Q231 219 186 181Q141 143 88 115L72 113L90 129Q154 183 211 243Q268 303 316 366Q320 375 317 377Q314 379 308 378L186 308Q166 298 150 299Q134 300 115 308Q97 319 97 325Q97 331 116 333Q130 335 144 341Q158 347 174 352Q201 367 231 377Q261 387 284 404L292 510Q293 525 290 525Q287 525 274 521L218 523Q199 528 205 530Q211 532 223 534L275 554L297 566Q300 600 304 646Q308 692 278 721V721L286 720ZM604 646L608 660Q620 657 628 645Q636 633 641 621Q649 573 636 529Q623 485 603 434Q596 418 604 414Q612 410 627 416Q665 431 700 449Q735 467 775 469Q810 463 812 439Q814 415 780 400Q733 380 703 347Q673 314 692 268Q699 232 699 200Q699 168 688 129Q680 111 692 103Q704 95 721 81Q779 37 833 16Q887 -5 948 -41Q951 -43 957 -46Q963 -49 958 -55L926 -59Q843 -71 799 -52Q755 -33 682 55Q667 76 665 76Q663 76 646 56Q602 16 562 5Q522 -6 480 2Q471 5 474 7Q477 9 484 11Q523 9 564 41Q605 73 630 119Q609 149 589 176Q569 203 537 219Q526 222 528 228Q530 234 542 230Q568 230 590 208Q612 186 637 157Q642 155 645 149Q648 143 653 154Q664 185 667 213Q670 241 665 272Q659 306 669 330Q679 354 714 386Q722 401 721 404Q720 407 706 406Q678 397 652 382Q626 367 598 346Q589 340 583 337Q577 334 569 334Q554 349 548 373Q542 397 561 413Q586 466 604 528Q622 590 608 642V642V642V643L604 646Z" /></g></g><g transform="translate(0,1024)"><g transform="scale(1,-1) translate(0,-820)"><path stroke="none" fill="#FFFFFF" d="M584 552Q580 554 578 558Q576 562 587 563Q622 555 642 529Q662 503 665 470Q665 411 641 355Q617 299 578 238Q561 219 566 219Q571 219 590 208Q669 173 761 126Q853 79 891 -16Q892 -29 888 -33Q884 -37 870 -34Q780 11 699 71Q618 131 526 177Q455 100 386 78Q317 56 238 56Q233 57 233 61Q233 65 240 63Q304 68 357 101Q410 134 478 193Q489 203 482 207Q475 211 468 214Q404 246 347 264Q290 282 226 295Q219 300 221 304Q223 308 231 306Q299 305 365 289Q431 273 504 248Q516 244 518 248Q520 252 529 264Q566 321 584 375Q602 429 608 488Q611 508 607 526Q603 544 582 560V560L584 552ZM364 420Q356 423 352 427Q348 431 356 433Q383 435 413 431Q443 427 465 393L469 367Q440 356 414 382Q388 408 364 422V422V422V423V420Z" /></g></g><g transform="translate(1024,1024)"><g transform="scale(1,-1) translate(0,-820)"><path stroke="none" fill="#FFFFFF" d="M654 726Q678 732 696 722Q714 712 733 683Q759 598 702 533Q645 468 555 473Q546 474 548 476Q550 478 558 477Q599 481 631 514Q663 547 683 587Q692 614 696 648Q700 682 676 704Q655 705 633 697Q611 689 591 671Q583 666 579 666Q575 666 576 674Q593 697 614 709Q635 721 656 724V724L654 726ZM450 668Q446 674 446 680Q446 686 455 682Q467 669 473 653Q479 637 481 622Q483 617 484 608Q485 599 493 598L519 620Q525 624 527 620Q529 616 524 609Q510 590 503 573Q496 556 496 535Q490 516 482 513Q474 510 457 525Q431 571 443 599Q455 627 454 666V666L450 668ZM288 632Q292 650 298 646Q304 642 307 628Q306 617 306 605Q306 593 317 581L347 609Q353 615 359 615Q365 615 362 605Q342 577 328 551Q314 525 314 495Q312 492 308 480Q304 468 297 470Q245 506 261 550Q277 594 290 635V635L288 632ZM586 444Q619 448 651 450Q683 452 719 448Q747 448 777 444Q807 440 837 419Q863 399 871 376Q879 353 846 343L718 321Q710 324 705 326Q700 328 710 335Q723 341 735 346Q747 351 762 361Q784 379 782 393Q780 407 757 416Q646 437 542 415Q438 393 325 343Q303 332 281 334Q259 336 237 342Q230 343 228 345Q226 347 227 353Q321 375 405 403Q489 431 586 443V443V444ZM192 394Q199 405 206 406Q213 407 210 392Q196 353 198 317Q200 281 197 239Q187 215 172 215Q157 215 147 238Q138 276 152 318Q166 360 192 395V395V394ZM550 346L570 352Q614 356 630 330Q646 304 597 267L525 217Q520 214 508 207Q496 200 504 197Q513 194 519 182Q525 170 529 159Q534 141 539 143Q544 145 561 146Q601 150 645 158Q689 166 729 147Q744 138 744 125Q744 112 727 109L561 111Q543 109 543 107Q543 105 546 90Q554 48 554 2Q554 -44 530 -89Q499 -118 453 -114Q407 -110 372 -95Q362 -91 366 -87Q370 -83 375 -86Q438 -89 471 -58Q504 -27 515 38Q516 53 516 77Q516 101 508 107Q471 101 437 95Q403 89 364 76Q347 71 331 71Q315 71 299 75Q286 82 282 88Q278 94 294 97L486 139Q512 141 503 163Q494 185 474 196Q462 198 464 204Q466 210 481 209Q508 236 526 264Q544 292 563 322Q566 329 564 333Q562 337 556 333Q525 322 499 308Q473 294 443 276Q419 261 394 263Q369 265 345 280Q338 286 334 292Q330 298 331 303Q386 304 438 320Q490 336 548 358V358V358V359L550 346Z" /></g></g></g></svg>